<svg width="25" height="24" viewBox="0 0 25 24" fill="none" xmlns="http://www.w3.org/2000/svg">
<path fill-rule="evenodd" clip-rule="evenodd" d="M10.1608 4.00376C11.3784 5.53217 12.4698 7.16581 13.419 8.88887C15.1358 8.24754 16.7528 7.40165 18.2405 6.38083C16.7334 4.76136 14.5849 3.75 12.2 3.75C11.4955 3.75 10.8124 3.83812 10.1608 4.00376ZM19.1602 7.56873C17.6038 8.64497 15.9133 9.54135 14.119 10.2278C14.4045 10.8042 14.6745 11.3896 14.9283 11.9836C15.5901 11.886 16.2671 11.8354 16.956 11.8354C18.1608 11.8354 19.3302 11.9902 20.4453 12.2813C20.4484 12.188 20.45 12.0942 20.45 12C20.45 10.3683 19.9769 8.84858 19.1602 7.56873ZM20.2567 13.784C19.2072 13.4918 18.1004 13.3354 16.956 13.3354C16.4649 13.3354 15.9806 13.3642 15.5045 13.4203C16.1424 15.1202 16.6507 16.8834 17.0175 18.6981C18.6357 17.5321 19.8135 15.795 20.2567 13.784ZM15.645 19.4987C15.2721 17.4943 14.7191 15.5532 14.0034 13.6928C11.1486 14.3976 8.687 16.1016 7.01086 18.4141C8.42859 19.5627 10.2334 20.25 12.2 20.25C13.4309 20.25 14.5973 19.9809 15.645 19.4987ZM5.92616 17.3577C7.75873 14.9121 10.3869 13.0952 13.4272 12.2916C13.1947 11.7614 12.9488 11.2384 12.6898 10.723C10.443 11.4221 8.05425 11.7988 5.578 11.7988C5.03225 11.7988 4.49066 11.7805 3.95383 11.7445C3.95125 11.8293 3.94995 11.9145 3.94995 12C3.94995 14.0452 4.6934 15.9158 5.92616 17.3577ZM4.13513 10.2531C4.6121 10.2834 5.0932 10.2988 5.578 10.2988C7.80005 10.2988 9.94618 9.97553 11.9722 9.37347C11.0118 7.66386 9.90443 6.04778 8.66709 4.54237C6.38528 5.62535 4.68014 7.72469 4.13513 10.2531ZM8.60621 2.93389C9.71928 2.49233 10.9322 2.25 12.2 2.25C15.3506 2.25 18.1523 3.74521 19.9335 6.06165C21.1978 7.70598 21.95 9.76622 21.95 12C21.95 12.4635 21.9176 12.9198 21.8548 13.3668C21.4164 16.49 19.5 19.1359 16.8384 20.5779C15.4583 21.3257 13.8775 21.75 12.2 21.75C9.60582 21.75 7.24693 20.7359 5.50071 19.084C3.623 17.3077 2.44995 14.7902 2.44995 12C2.44995 11.61 2.47288 11.2251 2.51753 10.8466C2.94369 7.23368 5.34301 4.22841 8.60621 2.93389Z" fill="white"/>
</svg>
