<svg width="182" height="36" viewBox="0 0 182 36" fill="none" xmlns="http://www.w3.org/2000/svg">
<path fill-rule="evenodd" clip-rule="evenodd" d="M2.66667 9.66675C1.18054 9.66675 0 10.9013 0 12.3751V23.6251C0 25.0988 1.18054 26.3334 2.66667 26.3334H17.3333C18.8195 26.3334 20 25.0988 20 23.6251V12.3751C20 10.9013 18.8195 9.66675 17.3333 9.66675H2.66667ZM2.14934 11.4864C2.3026 11.3889 2.48089 11.3334 2.66667 11.3334H17.3333C17.5188 11.3334 17.6969 11.3888 17.85 11.486L9.99942 17.7665L2.14934 11.4864ZM1.66667 13.2346V23.6251C1.66667 24.2138 2.13612 24.6667 2.66667 24.6667H17.3333C17.8638 24.6667 18.3333 24.2138 18.3333 23.6251V13.2337L10.52 19.4844C10.2157 19.7278 9.78317 19.7278 9.47883 19.4844L1.66667 13.2346Z" fill="url(#paint0_linear_139_1568)"/>
<path d="M31.5511 18.5227V25H29.4276V10.4545H31.5227V15.8665H31.6577C31.9134 15.2794 32.304 14.813 32.8295 14.4673C33.3551 14.1217 34.0417 13.9489 34.8892 13.9489C35.6373 13.9489 36.2907 14.1027 36.8494 14.4105C37.4129 14.7183 37.8485 15.1776 38.1562 15.7884C38.4688 16.3944 38.625 17.152 38.625 18.0611V25H36.5014V18.3168C36.5014 17.5166 36.2955 16.8963 35.8835 16.456C35.4716 16.0109 34.8987 15.7884 34.1648 15.7884C33.6629 15.7884 33.2131 15.8949 32.8153 16.108C32.4223 16.321 32.1122 16.6335 31.8849 17.0455C31.6624 17.4527 31.5511 17.9451 31.5511 18.5227ZM41.1188 25V14.0909H43.2424V25H41.1188ZM42.1912 12.4077C41.8219 12.4077 41.5047 12.2846 41.2395 12.0384C40.9791 11.7874 40.8489 11.4891 40.8489 11.1435C40.8489 10.7931 40.9791 10.4948 41.2395 10.2486C41.5047 9.99763 41.8219 9.87216 42.1912 9.87216C42.5606 9.87216 42.8754 9.99763 43.1359 10.2486C43.401 10.4948 43.5336 10.7931 43.5336 11.1435C43.5336 11.4891 43.401 11.7874 43.1359 12.0384C42.8754 12.2846 42.5606 12.4077 42.1912 12.4077ZM54.5164 28.956C53.0486 28.956 51.7465 28.7547 50.6101 28.3523C49.4785 27.9545 48.5244 27.3674 47.7479 26.5909C46.9714 25.8191 46.3819 24.8722 45.9794 23.75C45.577 22.6278 45.3758 21.3471 45.3758 19.9077C45.3758 18.5062 45.5794 17.2467 45.9865 16.1293C46.3937 15.0118 46.9856 14.0601 47.7621 13.2741C48.5434 12.4834 49.4927 11.8797 50.6101 11.4631C51.7276 11.0464 52.9965 10.8381 54.4169 10.8381C55.7758 10.8381 56.9738 11.0511 58.0107 11.4773C59.0476 11.9034 59.9188 12.4882 60.6243 13.2315C61.3346 13.9749 61.8696 14.8272 62.2294 15.7884C62.5893 16.7495 62.7692 17.7652 62.7692 18.8352C62.7692 19.5833 62.7219 20.3149 62.6272 21.0298C62.5325 21.7401 62.3573 22.384 62.1016 22.9616C61.8507 23.5346 61.4861 23.9938 61.0079 24.3395C60.5344 24.6804 59.9188 24.858 59.1613 24.8722C58.7588 24.8864 58.3682 24.839 57.9894 24.7301C57.6106 24.6212 57.2886 24.446 57.0235 24.2045C56.7583 23.9583 56.5973 23.6458 56.5405 23.267H56.4553C56.3417 23.5464 56.1523 23.8068 55.8871 24.0483C55.622 24.285 55.2834 24.4744 54.8715 24.6165C54.4643 24.7538 53.9908 24.8106 53.451 24.7869C52.8544 24.7633 52.317 24.6283 51.8388 24.3821C51.3606 24.1359 50.951 23.795 50.6101 23.3594C50.274 22.9238 50.0159 22.4077 49.836 21.8111C49.6561 21.2145 49.5661 20.5516 49.5661 19.8224C49.5661 19.1217 49.6679 18.4943 49.8715 17.9403C50.0751 17.3816 50.3521 16.901 50.7025 16.4986C51.0576 16.0914 51.4648 15.7694 51.924 15.5327C52.3833 15.2959 52.8687 15.1468 53.38 15.0852C53.8772 15.0284 54.3341 15.0426 54.7508 15.1278C55.1674 15.2131 55.5131 15.3433 55.7877 15.5185C56.067 15.6937 56.2422 15.8854 56.3133 16.0938H56.4056V15.2983H58.1527V21.8892C58.1527 22.2633 58.2498 22.5805 58.4439 22.8409C58.6428 23.1013 58.9245 23.2315 59.2891 23.2315C59.72 23.2315 60.0562 23.0729 60.2976 22.7557C60.5438 22.4384 60.7167 21.9508 60.8161 21.2926C60.9203 20.6345 60.9723 19.7917 60.9723 18.7642C60.9723 18.0445 60.8753 17.3674 60.6812 16.733C60.4918 16.0937 60.21 15.5161 59.836 15C59.4667 14.4792 59.0121 14.0317 58.4723 13.6577C57.9326 13.2836 57.317 12.9948 56.6258 12.7912C55.9392 12.5876 55.1793 12.4858 54.3459 12.4858C53.2143 12.4858 52.2081 12.661 51.3275 13.0114C50.4468 13.357 49.7034 13.8565 49.0973 14.5099C48.496 15.1634 48.0391 15.947 47.7266 16.8608C47.4188 17.7699 47.265 18.7902 47.265 19.9219C47.265 21.1009 47.4236 22.1473 47.7408 23.0611C48.058 23.9702 48.5268 24.7372 49.1471 25.3622C49.7673 25.9872 50.5344 26.4607 51.4482 26.7827C52.362 27.1094 53.4155 27.2727 54.6087 27.2727C55.139 27.2727 55.6598 27.2254 56.1712 27.1307C56.6826 27.0407 57.1371 26.9366 57.5348 26.8182C57.9373 26.7045 58.238 26.6122 58.4368 26.5412L58.934 28.0966C58.6404 28.2339 58.2498 28.3688 57.7621 28.5014C57.2792 28.634 56.7536 28.7429 56.1854 28.8281C55.622 28.9134 55.0656 28.956 54.5164 28.956ZM53.863 23.0469C54.4785 23.0469 54.9733 22.9238 55.3473 22.6776C55.7261 22.4313 55.9984 22.0644 56.1641 21.5767C56.3346 21.0843 56.4198 20.4688 56.4198 19.7301C56.4151 19.0104 56.3227 18.4375 56.1428 18.0114C55.9676 17.5805 55.693 17.2727 55.3189 17.0881C54.9496 16.8987 54.4738 16.804 53.8914 16.804C53.3563 16.804 52.8994 16.9342 52.5206 17.1946C52.1466 17.455 51.8601 17.8078 51.6613 18.2528C51.4671 18.6979 51.3677 19.1927 51.363 19.7372C51.3677 20.3101 51.4482 20.8499 51.6044 21.3565C51.7654 21.8584 52.0258 22.2656 52.3857 22.5781C52.7503 22.8906 53.2427 23.0469 53.863 23.0469ZM72.9495 16.7543L71.0247 17.0952C70.9443 16.849 70.8164 16.6146 70.6412 16.392C70.4708 16.1695 70.2388 15.9872 69.9452 15.8452C69.6516 15.7031 69.2847 15.6321 68.8443 15.6321C68.243 15.6321 67.7411 15.767 67.3387 16.0369C66.9362 16.3021 66.735 16.6454 66.735 17.0668C66.735 17.4313 66.8699 17.7249 67.1398 17.9474C67.4097 18.17 67.8453 18.3523 68.4466 18.4943L70.1796 18.892C71.1834 19.1241 71.9315 19.4815 72.4239 19.9645C72.9163 20.4474 73.1625 21.0748 73.1625 21.8466C73.1625 22.5 72.9731 23.0824 72.5943 23.5938C72.2203 24.1004 71.6971 24.4981 71.0247 24.7869C70.3571 25.0758 69.583 25.2202 68.7023 25.2202C67.4807 25.2202 66.484 24.9598 65.7122 24.4389C64.9405 23.9134 64.467 23.1676 64.2918 22.2017L66.3443 21.8892C66.4722 22.4242 66.735 22.8291 67.1327 23.1037C67.5304 23.3736 68.0489 23.5085 68.6881 23.5085C69.3841 23.5085 69.9405 23.3641 70.3571 23.0753C70.7738 22.7817 70.9821 22.4242 70.9821 22.0028C70.9821 21.6619 70.8543 21.3755 70.5986 21.1435C70.3477 20.9115 69.9618 20.7363 69.4409 20.6179L67.5943 20.2131C66.5764 19.9811 65.8235 19.6117 65.3358 19.1051C64.8529 18.5985 64.6114 17.9569 64.6114 17.1804C64.6114 16.5365 64.7913 15.973 65.1512 15.4901C65.511 15.0071 66.0082 14.6307 66.6426 14.3608C67.2771 14.0862 68.0039 13.9489 68.823 13.9489C70.002 13.9489 70.93 14.2045 71.6071 14.7159C72.2842 15.2225 72.7317 15.902 72.9495 16.7543ZM78.3321 25.2415C77.6408 25.2415 77.0158 25.1136 76.4571 24.858C75.8984 24.5975 75.4557 24.2211 75.129 23.7287C74.807 23.2363 74.646 22.6326 74.646 21.9176C74.646 21.3021 74.7644 20.7955 75.0012 20.3977C75.2379 20 75.5575 19.6851 75.96 19.4531C76.3624 19.2211 76.8122 19.0459 77.3094 18.9276C77.8065 18.8092 78.3132 18.7192 78.8293 18.6577C79.4827 18.5819 80.013 18.5204 80.4202 18.473C80.8274 18.4209 81.1233 18.3381 81.308 18.2244C81.4926 18.1108 81.585 17.9261 81.585 17.6705V17.6207C81.585 17.0005 81.4098 16.5199 81.0594 16.179C80.7137 15.8381 80.1976 15.6676 79.5111 15.6676C78.7961 15.6676 78.2327 15.8262 77.8208 16.1435C77.4136 16.456 77.1318 16.804 76.9756 17.1875L74.9798 16.733C75.2166 16.0701 75.5622 15.535 76.0168 15.1278C76.4761 14.7159 77.004 14.4176 77.6006 14.233C78.1972 14.0436 78.8245 13.9489 79.4827 13.9489C79.9183 13.9489 80.3799 14.0009 80.8676 14.1051C81.3601 14.2045 81.8193 14.3892 82.2455 14.6591C82.6763 14.929 83.0291 15.3149 83.3037 15.8168C83.5783 16.3139 83.7156 16.9602 83.7156 17.7557V25H81.6418V23.5085H81.5565C81.4192 23.7831 81.2133 24.053 80.9387 24.3182C80.664 24.5833 80.3113 24.8035 79.8804 24.9787C79.4495 25.1539 78.9334 25.2415 78.3321 25.2415ZM78.7938 23.5369C79.3809 23.5369 79.8828 23.4209 80.2994 23.1889C80.7208 22.9569 81.0404 22.6539 81.2583 22.2798C81.4808 21.901 81.5921 21.4962 81.5921 21.0653V19.6591C81.5163 19.7348 81.3695 19.8059 81.1517 19.8722C80.9387 19.9337 80.6948 19.9882 80.4202 20.0355C80.1456 20.0781 79.878 20.1184 79.6176 20.1562C79.3572 20.1894 79.1394 20.2178 78.9642 20.2415C78.5523 20.2936 78.1759 20.3812 77.835 20.5043C77.4988 20.6274 77.2289 20.8049 77.0253 21.0369C76.8264 21.2642 76.727 21.5672 76.727 21.946C76.727 22.4716 76.9211 22.8693 77.3094 23.1392C77.6976 23.4044 78.1924 23.5369 78.7938 23.5369ZM86.2041 25V14.0909H88.2567V15.8239H88.3703C88.5692 15.2367 88.9196 14.7751 89.4214 14.4389C89.9281 14.098 90.501 13.9276 91.1402 13.9276C91.2728 13.9276 91.429 13.9323 91.6089 13.9418C91.7936 13.9512 91.938 13.9631 92.0422 13.9773V16.0085C91.957 15.9848 91.8054 15.9588 91.5876 15.9304C91.3698 15.8973 91.152 15.8807 90.9342 15.8807C90.4323 15.8807 89.9849 15.9872 89.5919 16.2003C89.2036 16.4086 88.8959 16.6998 88.6686 17.0739C88.4413 17.4432 88.3277 17.8646 88.3277 18.3381V25H86.2041ZM93.5399 25V14.0909H95.6635V25H93.5399ZM94.6123 12.4077C94.243 12.4077 93.9258 12.2846 93.6606 12.0384C93.4002 11.7874 93.27 11.4891 93.27 11.1435C93.27 10.7931 93.4002 10.4948 93.6606 10.2486C93.9258 9.99763 94.243 9.87216 94.6123 9.87216C94.9817 9.87216 95.2965 9.99763 95.5569 10.2486C95.8221 10.4948 95.9547 10.7931 95.9547 11.1435C95.9547 11.4891 95.8221 11.7874 95.5569 12.0384C95.2965 12.2846 94.9817 12.4077 94.6123 12.4077ZM98.1804 25V14.0909H100.219V15.8665H100.354C100.581 15.2652 100.953 14.7964 101.469 14.4602C101.985 14.1193 102.603 13.9489 103.322 13.9489C104.052 13.9489 104.662 14.1193 105.155 14.4602C105.652 14.8011 106.019 15.2699 106.256 15.8665H106.369C106.63 15.2841 107.044 14.8201 107.612 14.4744C108.18 14.1241 108.857 13.9489 109.643 13.9489C110.633 13.9489 111.44 14.259 112.065 14.8793C112.695 15.4995 113.01 16.4347 113.01 17.6847V25H110.886V17.8835C110.886 17.1449 110.685 16.6098 110.283 16.2784C109.88 15.947 109.4 15.7812 108.841 15.7812C108.15 15.7812 107.612 15.9943 107.229 16.4205C106.845 16.8419 106.653 17.384 106.653 18.0469V25H104.537V17.7486C104.537 17.1567 104.352 16.6809 103.983 16.321C103.614 15.9612 103.133 15.7812 102.541 15.7812C102.139 15.7812 101.767 15.8878 101.426 16.1009C101.09 16.3092 100.818 16.6004 100.609 16.9744C100.406 17.3485 100.304 17.7817 100.304 18.2741V25H98.1804ZM116.915 25.1349C116.527 25.1349 116.193 24.9976 115.914 24.723C115.635 24.4437 115.495 24.1075 115.495 23.7145C115.495 23.3262 115.635 22.9948 115.914 22.7202C116.193 22.4408 116.527 22.3011 116.915 22.3011C117.304 22.3011 117.637 22.4408 117.917 22.7202C118.196 22.9948 118.336 23.3262 118.336 23.7145C118.336 23.9749 118.269 24.214 118.137 24.4318C118.009 24.6449 117.839 24.8153 117.626 24.9432C117.412 25.071 117.176 25.1349 116.915 25.1349ZM124.924 25.2131C124.043 25.2131 123.257 24.9882 122.566 24.5384C121.88 24.0838 121.34 23.4375 120.947 22.5994C120.558 21.7566 120.364 20.7457 120.364 19.5668C120.364 18.3878 120.561 17.3793 120.954 16.5412C121.352 15.7031 121.896 15.0616 122.587 14.6165C123.279 14.1714 124.062 13.9489 124.938 13.9489C125.615 13.9489 126.16 14.0625 126.572 14.2898C126.988 14.5123 127.31 14.7727 127.538 15.071C127.77 15.3693 127.95 15.6321 128.077 15.8594H128.205V10.4545H130.329V25H128.255V23.3026H128.077C127.95 23.5346 127.765 23.7997 127.523 24.098C127.287 24.3963 126.96 24.6567 126.543 24.8793C126.127 25.1018 125.587 25.2131 124.924 25.2131ZM125.393 23.402C126.004 23.402 126.52 23.241 126.941 22.919C127.367 22.5923 127.689 22.1402 127.907 21.5625C128.13 20.9848 128.241 20.3125 128.241 19.5455C128.241 18.7879 128.132 18.125 127.914 17.5568C127.696 16.9886 127.377 16.5459 126.955 16.2287C126.534 15.9115 126.013 15.7528 125.393 15.7528C124.754 15.7528 124.221 15.9186 123.795 16.25C123.369 16.5814 123.047 17.0336 122.829 17.6065C122.616 18.1795 122.509 18.8258 122.509 19.5455C122.509 20.2746 122.618 20.9304 122.836 21.5128C123.054 22.0952 123.376 22.5568 123.802 22.8977C124.233 23.2339 124.763 23.402 125.393 23.402ZM137.721 25.2202C136.647 25.2202 135.721 24.9905 134.944 24.5312C134.173 24.0672 133.576 23.4162 133.155 22.5781C132.738 21.7353 132.53 20.7481 132.53 19.6165C132.53 18.4991 132.738 17.5142 133.155 16.6619C133.576 15.8097 134.163 15.1444 134.916 14.6662C135.674 14.188 136.559 13.9489 137.572 13.9489C138.188 13.9489 138.784 14.0507 139.362 14.2543C139.94 14.4579 140.458 14.7775 140.917 15.2131C141.377 15.6487 141.739 16.2145 142.004 16.9105C142.269 17.6018 142.402 18.4422 142.402 19.4318V20.1847H133.73V18.5938H140.321C140.321 18.035 140.207 17.5402 139.98 17.1094C139.753 16.6738 139.433 16.3305 139.021 16.0795C138.614 15.8286 138.136 15.7031 137.587 15.7031C136.99 15.7031 136.469 15.8499 136.024 16.1435C135.584 16.4323 135.243 16.8111 135.001 17.2798C134.765 17.7438 134.646 18.2481 134.646 18.7926V20.0355C134.646 20.7647 134.774 21.3849 135.03 21.8963C135.29 22.4077 135.652 22.7983 136.116 23.0682C136.58 23.3333 137.122 23.4659 137.743 23.4659C138.145 23.4659 138.512 23.4091 138.844 23.2955C139.175 23.1771 139.462 23.0019 139.703 22.7699C139.944 22.5379 140.129 22.2514 140.257 21.9105L142.267 22.2727C142.106 22.8646 141.817 23.383 141.4 23.8281C140.988 24.2685 140.47 24.6117 139.845 24.858C139.225 25.0994 138.517 25.2202 137.721 25.2202ZM152.593 16.7543L150.668 17.0952C150.588 16.849 150.46 16.6146 150.285 16.392C150.114 16.1695 149.882 15.9872 149.588 15.8452C149.295 15.7031 148.928 15.6321 148.488 15.6321C147.886 15.6321 147.384 15.767 146.982 16.0369C146.579 16.3021 146.378 16.6454 146.378 17.0668C146.378 17.4313 146.513 17.7249 146.783 17.9474C147.053 18.17 147.489 18.3523 148.09 18.4943L149.823 18.892C150.827 19.1241 151.575 19.4815 152.067 19.9645C152.56 20.4474 152.806 21.0748 152.806 21.8466C152.806 22.5 152.616 23.0824 152.238 23.5938C151.864 24.1004 151.34 24.4981 150.668 24.7869C150 25.0758 149.226 25.2202 148.346 25.2202C147.124 25.2202 146.127 24.9598 145.356 24.4389C144.584 23.9134 144.11 23.1676 143.935 22.2017L145.988 21.8892C146.115 22.4242 146.378 22.8291 146.776 23.1037C147.174 23.3736 147.692 23.5085 148.331 23.5085C149.027 23.5085 149.584 23.3641 150 23.0753C150.417 22.7817 150.625 22.4242 150.625 22.0028C150.625 21.6619 150.498 21.3755 150.242 21.1435C149.991 20.9115 149.605 20.7363 149.084 20.6179L147.238 20.2131C146.22 19.9811 145.467 19.6117 144.979 19.1051C144.496 18.5985 144.255 17.9569 144.255 17.1804C144.255 16.5365 144.435 15.973 144.794 15.4901C145.154 15.0071 145.651 14.6307 146.286 14.3608C146.92 14.0862 147.647 13.9489 148.466 13.9489C149.645 13.9489 150.573 14.2045 151.25 14.7159C151.927 15.2225 152.375 15.902 152.593 16.7543ZM154.801 25V14.0909H156.924V25H154.801ZM155.873 12.4077C155.504 12.4077 155.187 12.2846 154.921 12.0384C154.661 11.7874 154.531 11.4891 154.531 11.1435C154.531 10.7931 154.661 10.4948 154.921 10.2486C155.187 9.99763 155.504 9.87216 155.873 9.87216C156.242 9.87216 156.557 9.99763 156.818 10.2486C157.083 10.4948 157.215 10.7931 157.215 11.1435C157.215 11.4891 157.083 11.7874 156.818 12.0384C156.557 12.2846 156.242 12.4077 155.873 12.4077ZM164.015 29.3182C163.149 29.3182 162.403 29.2045 161.778 28.9773C161.158 28.75 160.651 28.4493 160.258 28.0753C159.865 27.7012 159.571 27.2917 159.377 26.8466L161.203 26.0938C161.33 26.3021 161.501 26.5223 161.714 26.7543C161.932 26.991 162.225 27.1922 162.595 27.358C162.969 27.5237 163.449 27.6065 164.036 27.6065C164.841 27.6065 165.506 27.41 166.032 27.017C166.558 26.6288 166.82 26.0085 166.82 25.1562V23.0114H166.685C166.558 23.2434 166.373 23.5014 166.131 23.7855C165.895 24.0696 165.568 24.3158 165.151 24.5241C164.735 24.7325 164.193 24.8366 163.525 24.8366C162.663 24.8366 161.887 24.6354 161.195 24.233C160.509 23.8258 159.964 23.2268 159.562 22.4361C159.164 21.6406 158.965 20.6629 158.965 19.5028C158.965 18.3428 159.162 17.3485 159.555 16.5199C159.953 15.6913 160.497 15.0568 161.188 14.6165C161.88 14.1714 162.663 13.9489 163.539 13.9489C164.216 13.9489 164.763 14.0625 165.18 14.2898C165.596 14.5123 165.921 14.7727 166.153 15.071C166.39 15.3693 166.572 15.6321 166.7 15.8594H166.856V14.0909H168.937V25.2415C168.937 26.179 168.719 26.9484 168.283 27.5497C167.848 28.151 167.258 28.5961 166.515 28.8849C165.776 29.1738 164.943 29.3182 164.015 29.3182ZM163.994 23.0753C164.605 23.0753 165.121 22.9332 165.542 22.6491C165.968 22.3603 166.29 21.9484 166.508 21.4134C166.73 20.8736 166.842 20.2273 166.842 19.4744C166.842 18.7405 166.733 18.0942 166.515 17.5355C166.297 16.9768 165.978 16.5412 165.556 16.2287C165.135 15.9115 164.614 15.7528 163.994 15.7528C163.355 15.7528 162.822 15.9186 162.396 16.25C161.97 16.5767 161.648 17.0218 161.43 17.5852C161.217 18.1487 161.11 18.7784 161.11 19.4744C161.11 20.1894 161.219 20.8168 161.437 21.3565C161.655 21.8963 161.977 22.3177 162.403 22.6207C162.834 22.9238 163.364 23.0753 163.994 23.0753ZM173.568 18.5227V25H171.445V14.0909H173.483V15.8665H173.618C173.869 15.2888 174.262 14.8248 174.797 14.4744C175.337 14.1241 176.016 13.9489 176.836 13.9489C177.579 13.9489 178.23 14.1051 178.789 14.4176C179.347 14.7254 179.781 15.1847 180.088 15.7955C180.396 16.4062 180.55 17.1615 180.55 18.0611V25H178.426V18.3168C178.426 17.526 178.22 16.9081 177.809 16.4631C177.397 16.0133 176.831 15.7884 176.111 15.7884C175.619 15.7884 175.181 15.8949 174.797 16.108C174.418 16.321 174.118 16.6335 173.895 17.0455C173.677 17.4527 173.568 17.9451 173.568 18.5227Z" fill="url(#paint1_linear_139_1568)"/>
<defs>
<linearGradient id="paint0_linear_139_1568" x1="-3.01075" y1="9.66675" x2="20.8093" y2="10.83" gradientUnits="userSpaceOnUse">
<stop stop-color="white" stop-opacity="0.86"/>
<stop offset="0.228" stop-color="#62A4F1" stop-opacity="0.79"/>
<stop offset="0.581089" stop-color="#7F4BEE" stop-opacity="0.77"/>
<stop offset="1" stop-color="#157FFB" stop-opacity="0.75"/>
</linearGradient>
<linearGradient id="paint1_linear_139_1568" x1="4.8172" y1="2" x2="181.878" y2="36.6762" gradientUnits="userSpaceOnUse">
<stop stop-color="white" stop-opacity="0.86"/>
<stop offset="0.228" stop-color="#62A4F1" stop-opacity="0.79"/>
<stop offset="0.581089" stop-color="#7F4BEE" stop-opacity="0.77"/>
<stop offset="1" stop-color="#157FFB" stop-opacity="0.75"/>
</linearGradient>
</defs>
</svg>
