<svg width="100" height="30" viewBox="0 0 100 30" fill="none" xmlns="http://www.w3.org/2000/svg">
<g clip-path="url(#clip0_139_1641)">
<path fill-rule="evenodd" clip-rule="evenodd" d="M2.57384 5.41675C1.15235 5.41675 0 6.57483 0 8.0034C0 9.43197 1.15235 10.59 2.57384 10.59C3.99533 10.59 5.14768 9.43197 5.14768 8.0034C5.14768 6.57483 3.99533 5.41675 2.57384 5.41675ZM1.4346 8.0034C1.4346 7.37108 1.94466 6.85849 2.57384 6.85849C3.20302 6.85849 3.71308 7.37108 3.71308 8.0034C3.71308 8.63571 3.20302 9.14831 2.57384 9.14831C1.94466 9.14831 1.4346 8.63571 1.4346 8.0034Z" fill="url(#paint0_linear_139_1641)"/>
<path fill-rule="evenodd" clip-rule="evenodd" d="M13.7131 11.0141C12.0457 11.0141 10.4466 11.6798 9.26757 12.8647C8.08852 14.0496 7.42615 15.6566 7.42615 17.3323V23.8626C7.42615 24.2607 7.7473 24.5834 8.14345 24.5834H11.8565C12.2527 24.5834 12.5738 24.2607 12.5738 23.8626V17.3323C12.5738 17.0287 12.6938 16.7374 12.9075 16.5228C13.1212 16.308 13.4109 16.1874 13.7131 16.1874C14.0152 16.1874 14.305 16.308 14.5187 16.5228C14.7323 16.7374 14.8523 17.0287 14.8523 17.3323V23.8626C14.8523 24.2607 15.1735 24.5834 15.5696 24.5834H19.2827C19.6788 24.5834 20 24.2607 20 23.8626V17.3323C20 15.6566 19.3377 14.0496 18.1586 12.8647C16.9796 11.6798 15.3805 11.0141 13.7131 11.0141ZM13.7131 12.4558C12.4262 12.4558 11.192 12.9696 10.282 13.8841C9.37199 14.7987 8.86074 16.039 8.86074 17.3323V23.1417H11.1392V17.3323C11.1392 16.6463 11.4104 15.9883 11.8931 15.5032C12.3757 15.0182 13.0304 14.7457 13.7131 14.7457C14.3957 14.7457 15.0503 15.0182 15.5331 15.5032C16.0157 15.9883 16.2869 16.6463 16.2869 17.3323V23.1417H18.5654V17.3323C18.5654 16.039 18.0542 14.7987 17.1442 13.8841C16.2342 12.9696 15 12.4558 13.7131 12.4558Z" fill="url(#paint1_linear_139_1641)"/>
<path fill-rule="evenodd" clip-rule="evenodd" d="M0 12.6679C0 12.2697 0.321146 11.947 0.7173 11.947H4.43038C4.82653 11.947 5.14768 12.2697 5.14768 12.6679V23.8626C5.14768 24.2607 4.82653 24.5834 4.43038 24.5834H0.7173C0.321146 24.5834 0 24.2607 0 23.8626V12.6679ZM1.4346 13.3887V23.1417H3.71308V13.3887H1.4346Z" fill="url(#paint2_linear_139_1641)"/>
</g>
<path d="M31.5511 10.4545V25H29.4276V10.4545H31.5511ZM34.068 25V14.0909H36.1916V25H34.068ZM35.1405 12.4077C34.7712 12.4077 34.4539 12.2846 34.1888 12.0384C33.9283 11.7874 33.7981 11.4891 33.7981 11.1435C33.7981 10.7931 33.9283 10.4948 34.1888 10.2486C34.4539 9.99763 34.7712 9.87216 35.1405 9.87216C35.5098 9.87216 35.8247 9.99763 36.0851 10.2486C36.3502 10.4948 36.4828 10.7931 36.4828 11.1435C36.4828 11.4891 36.3502 11.7874 36.0851 12.0384C35.8247 12.2846 35.5098 12.4077 35.1405 12.4077ZM40.8321 18.5227V25H38.7085V14.0909H40.7468V15.8665H40.8818C41.1327 15.2888 41.5257 14.8248 42.0608 14.4744C42.6005 14.1241 43.28 13.9489 44.0991 13.9489C44.8425 13.9489 45.4935 14.1051 46.0522 14.4176C46.611 14.7254 47.0442 15.1847 47.352 15.7955C47.6597 16.4062 47.8136 17.1615 47.8136 18.0611V25H45.69V18.3168C45.69 17.526 45.4841 16.9081 45.0721 16.4631C44.6602 16.0133 44.0944 15.7884 43.3747 15.7884C42.8823 15.7884 42.4443 15.8949 42.0608 16.108C41.682 16.321 41.3813 16.6335 41.1588 17.0455C40.941 17.4527 40.8321 17.9451 40.8321 18.5227ZM52.2747 21.2997L52.2605 18.7074H52.6299L56.9764 14.0909H59.5191L54.5617 19.3466H54.2279L52.2747 21.2997ZM50.3216 25V10.4545H52.4452V25H50.3216ZM57.2108 25L53.3046 19.8153L54.7676 18.331L59.8174 25H57.2108ZM65.3669 25.2202C64.2921 25.2202 63.3664 24.9905 62.5899 24.5312C61.8181 24.0672 61.2216 23.4162 60.8002 22.5781C60.3835 21.7353 60.1752 20.7481 60.1752 19.6165C60.1752 18.4991 60.3835 17.5142 60.8002 16.6619C61.2216 15.8097 61.8087 15.1444 62.5615 14.6662C63.3191 14.188 64.2045 13.9489 65.2178 13.9489C65.8333 13.9489 66.4299 14.0507 67.0075 14.2543C67.5852 14.4579 68.1037 14.7775 68.5629 15.2131C69.0222 15.6487 69.3844 16.2145 69.6496 16.9105C69.9147 17.6018 70.0473 18.4422 70.0473 19.4318V20.1847H61.3754V18.5938H67.9663C67.9663 18.035 67.8527 17.5402 67.6254 17.1094C67.3982 16.6738 67.0786 16.3305 66.6666 16.0795C66.2594 15.8286 65.7812 15.7031 65.232 15.7031C64.6354 15.7031 64.1145 15.8499 63.6695 16.1435C63.2291 16.4323 62.8882 16.8111 62.6467 17.2798C62.41 17.7438 62.2916 18.2481 62.2916 18.7926V20.0355C62.2916 20.7647 62.4195 21.3849 62.6752 21.8963C62.9356 22.4077 63.2978 22.7983 63.7618 23.0682C64.2258 23.3333 64.768 23.4659 65.3882 23.4659C65.7907 23.4659 66.1576 23.4091 66.4891 23.2955C66.8205 23.1771 67.107 23.0019 67.3485 22.7699C67.5899 22.5379 67.7746 22.2514 67.9024 21.9105L69.9124 22.2727C69.7514 22.8646 69.4626 23.383 69.0459 23.8281C68.634 24.2685 68.1155 24.6117 67.4905 24.858C66.8702 25.0994 66.1624 25.2202 65.3669 25.2202ZM76.1473 25.2131C75.2666 25.2131 74.4806 24.9882 73.7893 24.5384C73.1028 24.0838 72.563 23.4375 72.17 22.5994C71.7818 21.7566 71.5876 20.7457 71.5876 19.5668C71.5876 18.3878 71.7841 17.3793 72.1771 16.5412C72.5749 15.7031 73.1194 15.0616 73.8107 14.6165C74.5019 14.1714 75.2856 13.9489 76.1615 13.9489C76.8386 13.9489 77.3831 14.0625 77.795 14.2898C78.2117 14.5123 78.5337 14.7727 78.7609 15.071C78.9929 15.3693 79.1729 15.6321 79.3007 15.8594H79.4286V10.4545H81.5521V25H79.4783V23.3026H79.3007C79.1729 23.5346 78.9882 23.7997 78.7467 24.098C78.51 24.3963 78.1833 24.6567 77.7666 24.8793C77.35 25.1018 76.8102 25.2131 76.1473 25.2131ZM76.6161 23.402C77.2268 23.402 77.7429 23.241 78.1643 22.919C78.5905 22.5923 78.9125 22.1402 79.1303 21.5625C79.3528 20.9848 79.4641 20.3125 79.4641 19.5455C79.4641 18.7879 79.3552 18.125 79.1374 17.5568C78.9196 16.9886 78.6 16.5459 78.1786 16.2287C77.7571 15.9115 77.2363 15.7528 76.6161 15.7528C75.9768 15.7528 75.4442 15.9186 75.018 16.25C74.5919 16.5814 74.2699 17.0336 74.0521 17.6065C73.8391 18.1795 73.7325 18.8258 73.7325 19.5455C73.7325 20.2746 73.8414 20.9304 74.0592 21.5128C74.277 22.0952 74.599 22.5568 75.0251 22.8977C75.456 23.2339 75.9863 23.402 76.6161 23.402ZM84.243 25V14.0909H86.3666V25H84.243ZM85.3155 12.4077C84.9461 12.4077 84.6289 12.2846 84.3638 12.0384C84.1033 11.7874 83.9731 11.4891 83.9731 11.1435C83.9731 10.7931 84.1033 10.4948 84.3638 10.2486C84.6289 9.99763 84.9461 9.87216 85.3155 9.87216C85.6848 9.87216 85.9997 9.99763 86.2601 10.2486C86.5252 10.4948 86.6578 10.7931 86.6578 11.1435C86.6578 11.4891 86.5252 11.7874 86.2601 12.0384C85.9997 12.2846 85.6848 12.4077 85.3155 12.4077ZM91.0071 18.5227V25H88.8835V14.0909H90.9218V15.8665H91.0568C91.3077 15.2888 91.7007 14.8248 92.2358 14.4744C92.7755 14.1241 93.455 13.9489 94.2741 13.9489C95.0175 13.9489 95.6685 14.1051 96.2272 14.4176C96.786 14.7254 97.2192 15.1847 97.527 15.7955C97.8347 16.4062 97.9886 17.1615 97.9886 18.0611V25H95.865V18.3168C95.865 17.526 95.6591 16.9081 95.2471 16.4631C94.8352 16.0133 94.2694 15.7884 93.5497 15.7884C93.0573 15.7884 92.6193 15.8949 92.2358 16.108C91.857 16.321 91.5563 16.6335 91.3338 17.0455C91.116 17.4527 91.0071 17.9451 91.0071 18.5227Z" fill="url(#paint3_linear_139_1641)"/>
<defs>
<linearGradient id="paint0_linear_139_1641" x1="-3.01075" y1="5.41675" x2="20.8231" y2="6.42883" gradientUnits="userSpaceOnUse">
<stop stop-color="white" stop-opacity="0.86"/>
<stop offset="0.228" stop-color="#62A4F1" stop-opacity="0.79"/>
<stop offset="0.581089" stop-color="#7F4BEE" stop-opacity="0.77"/>
<stop offset="1" stop-color="#157FFB" stop-opacity="0.75"/>
</linearGradient>
<linearGradient id="paint1_linear_139_1641" x1="-3.01075" y1="5.41675" x2="20.8231" y2="6.42883" gradientUnits="userSpaceOnUse">
<stop stop-color="white" stop-opacity="0.86"/>
<stop offset="0.228" stop-color="#62A4F1" stop-opacity="0.79"/>
<stop offset="0.581089" stop-color="#7F4BEE" stop-opacity="0.77"/>
<stop offset="1" stop-color="#157FFB" stop-opacity="0.75"/>
</linearGradient>
<linearGradient id="paint2_linear_139_1641" x1="-3.01075" y1="5.41675" x2="20.8231" y2="6.42883" gradientUnits="userSpaceOnUse">
<stop stop-color="white" stop-opacity="0.86"/>
<stop offset="0.228" stop-color="#62A4F1" stop-opacity="0.79"/>
<stop offset="0.581089" stop-color="#7F4BEE" stop-opacity="0.77"/>
<stop offset="1" stop-color="#157FFB" stop-opacity="0.75"/>
</linearGradient>
<linearGradient id="paint3_linear_139_1641" x1="17.1613" y1="2" x2="102.04" y2="11.5653" gradientUnits="userSpaceOnUse">
<stop stop-color="white" stop-opacity="0.86"/>
<stop offset="0.228" stop-color="#62A4F1" stop-opacity="0.79"/>
<stop offset="0.581089" stop-color="#7F4BEE" stop-opacity="0.77"/>
<stop offset="1" stop-color="#157FFB" stop-opacity="0.75"/>
</linearGradient>
<clipPath id="clip0_139_1641">
<rect width="20" height="20" fill="white" transform="translate(0 5)"/>
</clipPath>
</defs>
</svg>
